<svg id="Слой_1" data-name="Слой 1" xmlns="http://www.w3.org/2000/svg" xmlns:xlink="http://www.w3.org/1999/xlink" viewBox="0 0 309 77"><defs><style>.cls-1{font-size:95.01px;font-family:Roboto-Bold, Roboto;font-weight:700;}.cls-1,.cls-10,.cls-11,.cls-12,.cls-13,.cls-14,.cls-15,.cls-16,.cls-17,.cls-18,.cls-19,.cls-2,.cls-20,.cls-5,.cls-6,.cls-7,.cls-8,.cls-9{fill:none;}.cls-3{clip-path:url(#clip-path);}.cls-4{clip-path:url(#clip-path-2);}.cls-10,.cls-11,.cls-12,.cls-13,.cls-14,.cls-15,.cls-16,.cls-17,.cls-18,.cls-19,.cls-20,.cls-5,.cls-6,.cls-7,.cls-8,.cls-9{stroke-miterlimit:10;stroke-width:31px;}.cls-5{stroke:url(#Spectrum_);}.cls-6{stroke:url(#Spectrum_2);}.cls-7{stroke:url(#Spectrum_3);}.cls-8{stroke:url(#Spectrum_4);}.cls-9{stroke:url(#Spectrum_5);}.cls-10{stroke:url(#Spectrum_6);}.cls-11{stroke:url(#Spectrum_7);}.cls-12{stroke:url(#Spectrum_8);}.cls-13{stroke:url(#Spectrum_9);}.cls-14{stroke:url(#Spectrum_10);}.cls-15{stroke:url(#Spectrum_11);}.cls-16{stroke:url(#Spectrum_12);}.cls-17{stroke:url(#Spectrum_13);}.cls-18{stroke:url(#Spectrum_14);}.cls-19{stroke:url(#Spectrum_15);}.cls-20{stroke:url(#Spectrum_16);}.cls-21{font-size:96px;fill:#fff;font-family:Roboto-Regular, Roboto;}.cls-22{letter-spacing:-0.01em;}</style><clipPath id="clip-path"><text class="cls-1" transform="translate(-0.75 72.45)">D</text></clipPath><clipPath id="clip-path-2"><circle class="cls-2" cx="26.15" cy="38.94" r="40.05"/></clipPath><linearGradient id="Spectrum_" x1="-90.06" y1="37.59" x2="59.25" y2="37.59" gradientUnits="userSpaceOnUse"><stop offset="0" stop-color="#00aee1"/><stop offset="0.2" stop-color="#4959a3"/><stop offset="0.4" stop-color="#f0579a"/><stop offset="0.6" stop-color="#ee4f46"/><stop offset="0.8" stop-color="#fde93e"/><stop offset="1" stop-color="#00a15f"/></linearGradient><linearGradient id="Spectrum_2" x1="-98.82" y1="37.59" x2="50.49" y2="37.59" xlink:href="#Spectrum_"/><linearGradient id="Spectrum_3" x1="-81.65" y1="38.48" x2="67.65" y2="38.48" xlink:href="#Spectrum_"/><linearGradient id="Spectrum_4" x1="-73.25" y1="39.38" x2="76.06" y2="39.38" xlink:href="#Spectrum_"/><linearGradient id="Spectrum_5" x1="-64.84" y1="40.28" x2="84.47" y2="40.28" xlink:href="#Spectrum_"/><linearGradient id="Spectrum_6" x1="-56.43" y1="41.18" x2="92.87" y2="41.18" xlink:href="#Spectrum_"/><linearGradient id="Spectrum_7" x1="-48.02" y1="42.07" x2="101.28" y2="42.07" xlink:href="#Spectrum_"/><linearGradient id="Spectrum_8" x1="-39.62" y1="42.97" x2="109.69" y2="42.97" xlink:href="#Spectrum_"/><linearGradient id="Spectrum_9" x1="-31.21" y1="43.87" x2="118.1" y2="43.87" xlink:href="#Spectrum_"/><linearGradient id="Spectrum_10" x1="-22.8" y1="44.77" x2="126.5" y2="44.77" xlink:href="#Spectrum_"/><linearGradient id="Spectrum_11" x1="-14.4" y1="45.66" x2="134.91" y2="45.66" xlink:href="#Spectrum_"/><linearGradient id="Spectrum_12" x1="-5.99" y1="46.56" x2="143.32" y2="46.56" xlink:href="#Spectrum_"/><linearGradient id="Spectrum_13" x1="2.42" y1="47.46" x2="151.72" y2="47.46" xlink:href="#Spectrum_"/><linearGradient id="Spectrum_14" x1="10.82" y1="48.36" x2="160.13" y2="48.36" xlink:href="#Spectrum_"/><linearGradient id="Spectrum_15" x1="19.23" y1="49.25" x2="168.54" y2="49.25" xlink:href="#Spectrum_"/><linearGradient id="Spectrum_16" x1="26.74" y1="49.25" x2="176.05" y2="49.25" xlink:href="#Spectrum_"/></defs><g class="cls-3"><g class="cls-4"><line class="cls-5" x1="-79.09" y1="-26.18" x2="48.28" y2="101.35"/><line class="cls-6" x1="-87.85" y1="-26.18" x2="39.52" y2="101.35"/><line class="cls-7" x1="-70.69" y1="-25.28" x2="56.69" y2="102.25"/><line class="cls-8" x1="-62.28" y1="-24.38" x2="65.09" y2="103.14"/><line class="cls-9" x1="-53.87" y1="-23.49" x2="73.5" y2="104.04"/><line class="cls-10" x1="-45.46" y1="-22.59" x2="81.91" y2="104.94"/><line class="cls-11" x1="-37.06" y1="-21.69" x2="90.31" y2="105.84"/><line class="cls-12" x1="-28.65" y1="-20.79" x2="98.72" y2="106.73"/><line class="cls-13" x1="-20.24" y1="-19.9" x2="107.13" y2="107.63"/><line class="cls-14" x1="-11.84" y1="-19" x2="115.54" y2="108.53"/><line class="cls-15" x1="-3.43" y1="-18.1" x2="123.94" y2="109.43"/><line class="cls-16" x1="4.98" y1="-17.2" x2="132.35" y2="110.33"/><line class="cls-17" x1="13.38" y1="-16.31" x2="140.76" y2="111.22"/><line class="cls-18" x1="21.79" y1="-15.41" x2="149.16" y2="112.12"/><line class="cls-19" x1="30.2" y1="-14.51" x2="157.57" y2="113.02"/><line class="cls-20" x1="37.71" y1="-14.51" x2="165.08" y2="113.02"/></g></g><text class="cls-21" transform="translate(57 72.6)">i<tspan class="cls-22" x="23.3" y="0">v</tspan><tspan x="69.19" y="0">erse</tspan></text></svg>