<svg xmlns="http://www.w3.org/2000/svg" xmlns:xlink="http://www.w3.org/1999/xlink" viewBox="0 0 512 512"><defs><style>.cls-1,.cls-10,.cls-11,.cls-12,.cls-13,.cls-14,.cls-15,.cls-16,.cls-17,.cls-18,.cls-19,.cls-2,.cls-20,.cls-21,.cls-22,.cls-23,.cls-4,.cls-5,.cls-8,.cls-9{fill:none;}.cls-2{font-size:720px;font-family:Roboto-Bold, Roboto;font-weight:700;}.cls-3{clip-path:url(#clip-path);}.cls-10,.cls-11,.cls-12,.cls-13,.cls-14,.cls-15,.cls-16,.cls-17,.cls-18,.cls-19,.cls-20,.cls-21,.cls-22,.cls-23,.cls-4,.cls-5,.cls-8,.cls-9{stroke-miterlimit:10;}.cls-4,.cls-5{stroke-width:8px;}.cls-4{stroke:url(#Spectrum_);}.cls-5{stroke:url(#Spectrum_2);}.cls-6{clip-path:url(#clip-path-2);}.cls-7{clip-path:url(#clip-path-3);}.cls-10,.cls-11,.cls-12,.cls-13,.cls-14,.cls-15,.cls-16,.cls-17,.cls-18,.cls-19,.cls-20,.cls-21,.cls-22,.cls-23,.cls-8,.cls-9{stroke-width:50px;}.cls-8{stroke:url(#Spectrum_3);}.cls-9{stroke:url(#Spectrum_4);}.cls-10{stroke:url(#Spectrum_5);}.cls-11{stroke:url(#Spectrum_6);}.cls-12{stroke:url(#Spectrum_7);}.cls-13{stroke:url(#Spectrum_8);}.cls-14{stroke:url(#Spectrum_9);}.cls-15{stroke:url(#Spectrum_10);}.cls-16{stroke:url(#Spectrum_11);}.cls-17{stroke:url(#Spectrum_12);}.cls-18{stroke:url(#Spectrum_13);}.cls-19{stroke:url(#Spectrum_14);}.cls-20{stroke:url(#Spectrum_15);}.cls-21{stroke:url(#Spectrum_16);}.cls-22{stroke:url(#Spectrum_17);}.cls-23{stroke:url(#Spectrum_18);}</style><clipPath id="clip-path"><circle class="cls-1" cx="-744" cy="256" r="256"/></clipPath><linearGradient id="Spectrum_" x1="-787.48" y1="360.94" x2="32.36" y2="360.94" gradientUnits="userSpaceOnUse"><stop offset="0" stop-color="#4faddf"/><stop offset="0.2" stop-color="#4f59a0"/><stop offset="0.4" stop-color="#d35898"/><stop offset="0.6" stop-color="#d05048"/><stop offset="0.8" stop-color="#f8e951"/><stop offset="1" stop-color="#59a163"/></linearGradient><linearGradient id="Spectrum_2" x1="-733.75" y1="366.67" x2="86.09" y2="366.67" xlink:href="#Spectrum_"/><clipPath id="clip-path-2"><text class="cls-2" transform="translate(27.17 512.43)">D</text></clipPath><clipPath id="clip-path-3"><circle class="cls-1" cx="231" cy="258.5" r="303.5"/></clipPath><linearGradient id="Spectrum_3" x1="-599.38" y1="301.29" x2="401.24" y2="301.29" xlink:href="#Spectrum_"/><linearGradient id="Spectrum_4" x1="-665.77" y1="301.29" x2="334.85" y2="301.29" xlink:href="#Spectrum_"/><linearGradient id="Spectrum_5" x1="-535.67" y1="308.09" x2="464.95" y2="308.09" xlink:href="#Spectrum_"/><linearGradient id="Spectrum_6" x1="-471.97" y1="314.89" x2="528.66" y2="314.89" xlink:href="#Spectrum_"/><linearGradient id="Spectrum_7" x1="-408.26" y1="321.69" x2="592.37" y2="321.69" xlink:href="#Spectrum_"/><linearGradient id="Spectrum_8" x1="-344.55" y1="328.49" x2="656.07" y2="328.49" xlink:href="#Spectrum_"/><linearGradient id="Spectrum_9" x1="-280.84" y1="335.29" x2="719.78" y2="335.29" xlink:href="#Spectrum_"/><linearGradient id="Spectrum_10" x1="-217.13" y1="342.1" x2="783.49" y2="342.1" xlink:href="#Spectrum_"/><linearGradient id="Spectrum_11" x1="-153.42" y1="348.9" x2="847.2" y2="348.9" xlink:href="#Spectrum_"/><linearGradient id="Spectrum_12" x1="-89.72" y1="355.7" x2="910.91" y2="355.7" xlink:href="#Spectrum_"/><linearGradient id="Spectrum_13" x1="-26.01" y1="362.5" x2="974.61" y2="362.5" xlink:href="#Spectrum_"/><linearGradient id="Spectrum_14" x1="37.7" y1="369.3" x2="1038.32" y2="369.3" xlink:href="#Spectrum_"/><linearGradient id="Spectrum_15" x1="101.41" y1="376.11" x2="1102.03" y2="376.11" xlink:href="#Spectrum_"/><linearGradient id="Spectrum_16" x1="165.12" y1="382.91" x2="1165.74" y2="382.91" xlink:href="#Spectrum_"/><linearGradient id="Spectrum_17" x1="228.82" y1="389.71" x2="1229.45" y2="389.71" xlink:href="#Spectrum_"/><linearGradient id="Spectrum_18" x1="285.73" y1="389.71" x2="1286.35" y2="389.71" xlink:href="#Spectrum_"/></defs><title>Artboard 2</title><g id="Слой_1" data-name="Слой 1"><g class="cls-3"><line class="cls-4" x1="-784.65" y1="-46.65" x2="29.53" y2="768.53"/><line class="cls-5" x1="-730.92" y1="-40.92" x2="83.26" y2="774.26"/></g></g><g id="Layer_2" data-name="Layer 2"><g class="cls-6"><g class="cls-7"><line class="cls-8" x1="-581.69" y1="-181.93" x2="383.55" y2="784.5"/><line class="cls-9" x1="-648.08" y1="-181.93" x2="317.16" y2="784.5"/><line class="cls-10" x1="-517.98" y1="-175.13" x2="447.26" y2="791.3"/><line class="cls-11" x1="-454.28" y1="-168.33" x2="510.97" y2="798.1"/><line class="cls-12" x1="-390.57" y1="-161.53" x2="574.68" y2="804.91"/><line class="cls-13" x1="-326.86" y1="-154.72" x2="638.39" y2="811.71"/><line class="cls-14" x1="-263.15" y1="-147.92" x2="702.09" y2="818.51"/><line class="cls-15" x1="-199.44" y1="-141.12" x2="765.8" y2="825.31"/><line class="cls-16" x1="-135.74" y1="-134.32" x2="829.51" y2="832.11"/><line class="cls-17" x1="-72.03" y1="-127.52" x2="893.22" y2="838.92"/><line class="cls-18" x1="-8.32" y1="-120.71" x2="956.93" y2="845.72"/><line class="cls-19" x1="55.39" y1="-113.91" x2="1020.63" y2="852.52"/><line class="cls-20" x1="119.1" y1="-107.11" x2="1084.34" y2="859.32"/><line class="cls-21" x1="182.8" y1="-100.31" x2="1148.05" y2="866.12"/><line class="cls-22" x1="246.51" y1="-93.51" x2="1211.76" y2="872.92"/><line class="cls-23" x1="303.42" y1="-93.51" x2="1268.66" y2="872.92"/></g></g></g></svg>