<?xml version="1.0" standalone="no"?>
<!DOCTYPE svg PUBLIC "-//W3C//DTD SVG 20010904//EN"
 "http://www.w3.org/TR/2001/REC-SVG-20010904/DTD/svg10.dtd">
<svg version="1.0" xmlns="http://www.w3.org/2000/svg"
 width="700.000000pt" height="700.000000pt" viewBox="0 0 700.000000 700.000000"
 preserveAspectRatio="xMidYMid meet">
<metadata>
Created by potrace 1.14, written by Peter Selinger 2001-2017
</metadata>
<g transform="translate(0.000000,700.000000) scale(0.100000,-0.100000)"
fill="#000000" stroke="none">
<path d="M1012 6989 c-16 -6 -17 -229 -17 -3495 l1 -3489 1214 0 c1062 0 1395
5 1420 20 3 2 33 6 65 10 33 3 67 8 75 10 8 3 31 7 50 10 267 45 582 152 846
286 461 233 823 550 1102 964 37 54 72 108 78 120 6 11 31 54 54 95 223 388
374 875 425 1375 13 131 19 299 19 600 0 295 -3 399 -18 575 -4 41 -17 158
-21 180 -1 8 -6 35 -9 60 -11 70 -46 237 -66 315 -92 355 -184 579 -380 920
-24 43 -160 247 -170 255 -3 3 -19 23 -36 45 -69 94 -239 276 -355 380 -274
246 -678 477 -1044 597 -173 57 -442 121 -553 132 -20 2 -57 7 -82 10 -93 13
-128 16 -260 22 -180 8 -2317 11 -2338 3z m2348 -1173 c80 -8 126 -14 150 -21
8 -2 35 -7 60 -10 96 -13 264 -68 387 -126 281 -133 536 -395 682 -703 73
-153 148 -382 176 -536 4 -19 11 -57 16 -85 4 -27 13 -86 19 -130 6 -44 12
-94 15 -110 25 -174 25 -891 0 -1185 -11 -133 -48 -339 -90 -499 -29 -111 -94
-282 -149 -391 -231 -457 -581 -729 -1063 -825 -181 -36 -244 -40 -706 -40
l-419 0 1 2320 c0 1276 0 2327 1 2335 0 14 49 16 423 14 232 0 456 -4 497 -8z"/>
</g>
</svg>
